<?xml version="1.0" encoding="UTF-8"?>
<svg id="Layer_1" data-name="Layer 1" xmlns="http://www.w3.org/2000/svg" viewBox="0 0 1080 1080">
  <defs>
    <style>
      .cls-1 {
        font-family: Raleway-Regular, Raleway;
      }

      .cls-1, .cls-2 {
        font-size: 74.86px;
      }

      .cls-1, .cls-2, .cls-3 {
        fill: #3e5773;
      }

      .cls-2 {
        font-family: Raleway-Medium, Raleway;
        font-weight: 500;
      }

      .cls-4 {
        letter-spacing: -.02em;
      }
    </style>
  </defs>
  <g>
    <path class="cls-3" d="M246.26,438.11c-56.27,0-101.9,45.61-101.9,101.89s45.62,101.9,101.9,101.9,101.9-45.62,101.9-101.9-45.62-101.89-101.9-101.89ZM222.56,501.47h-8.46c-4.63,0-7.9.86-9.46,2.49-1.17,1.2-2,3.17-2.47,5.77h20.39v17.78h-20.8v67.63h-17.64v-67.63h-11.78v-17.78h12.01c.52-8.79,3.39-15.38,8.54-19.63,5.72-4.73,14.35-6.78,26.32-6.26l3.35.15v17.48ZM315.45,573.63c-3.56,6.78-8.65,12.12-15.18,15.88-6.47,3.73-13.98,5.63-22.32,5.63s-15.41-1.69-21.35-5.03c-5.94-3.33-11.11-8.56-15.38-15.55-2.68-4.27-4.39-9.47-5.09-15.39-.64-5.52-.96-11.67-.96-18.29v-56.45h17.64v29.34c.26-.17.55-.34.82-.52,3.26-2.03,7.08-3.78,11.35-5.22,4.36-1.47,8.74-2.21,12.97-2.21,8.35,0,15.86,1.89,22.32,5.63,6.53,3.76,11.63,9.1,15.18,15.88,3.49,6.68,5.28,14.48,5.28,23.15s-1.79,16.47-5.28,23.16ZM277.94,523.29c-4.96,0-9.37,1.14-13.11,3.37-3.78,2.24-6.66,5.34-8.79,9.43-2.15,4.13-3.24,8.96-3.24,14.38s1.09,10.25,3.24,14.39c2.13,4.09,5.01,7.19,8.79,9.43,3.74,2.23,8.15,3.37,13.11,3.37,7.98,0,13.99-2.31,18.37-7.03,2.19-2.36,3.84-5.25,4.96-8.61,1.11-3.36,1.67-7.23,1.67-11.54,0-8.63-2.23-15.41-6.62-20.15-4.38-4.73-10.39-7.03-18.37-7.03Z"/>
    <path class="cls-3" d="M416.78,568.5c0,5.04-1.36,9.67-4.07,13.79-2.65,4.04-6.33,7.24-10.9,9.51-4.51,2.22-9.55,3.34-15.01,3.34-9.93,0-18.04-2.23-24.09-6.63-6.26-4.55-10-11.08-11.09-19.4l-.48-3.65,17.9-1.46.31,3.47c.29,3.19,1.7,5.49,4.44,7.24,3.05,1.95,7.47,2.93,13.16,2.93,3.78,0,6.74-.91,9.07-2.78,2.13-1.71,3.13-3.73,3.13-6.36,0-1.59-.46-2.78-1.45-3.78-1.31-1.29-3.02-2.39-5.08-3.22-2.42-.98-5.8-2.15-10.05-3.47-5.74-1.78-10.45-3.5-14-5.1-3.92-1.77-7.32-4.35-10.12-7.71-3-3.59-4.52-8.24-4.52-13.82,0-4.8,1.43-9.25,4.28-13.24,2.77-3.86,6.49-6.94,11.09-9.13,4.54-2.16,9.49-3.26,14.74-3.26,9.25,0,16.9,2.51,22.77,7.46,5.98,5.04,9.24,11.92,9.67,20.46l.18,3.54-17.8.73-.15-3.5c-.15-3.54-1.38-6.21-3.73-8.13-2.49-2.02-6.16-3.06-10.94-3.06-3.73,0-6.78.88-9.29,2.68-2.86,2.06-3.19,4.1-3.19,5.45,0,2.4.59,4.21,1.83,5.53,1.47,1.6,3.37,2.88,5.64,3.79,2.63,1.05,6.23,2.22,10.73,3.43,5.36,1.49,9.8,2.96,13.23,4.37,3.8,1.57,7.05,3.93,9.65,7.02,2.75,3.31,4.16,7.67,4.16,12.95Z"/>
    <circle class="cls-3" cx="144.37" cy="470.42" r="13.71"/>
  </g>
  <text class="cls-2" transform="translate(456.57 518.59)"><tspan x="0" y="0">Fl</tspan><tspan class="cls-4" x="65.05" y="0">e</tspan><tspan x="107.79" y="0">xi Business</tspan></text>
  <text class="cls-1" transform="translate(456.57 601.74)"><tspan x="0" y="0">Solution</tspan></text>
</svg>